<svg viewBox="0 0 924 752" version="1.1" xmlns="http://www.w3.org/2000/svg" xmlns:xlink="http://www.w3.org/1999/xlink">
    <defs>
        <linearGradient x1="50.0554616%" y1="94.1500638%" x2="50.0554616%" y2="0.436621821%" id="linearGradient-1">
            <stop stop-color="#78D431" offset="0%"></stop>
            <stop stop-color="#9EEE69" offset="100%"></stop>
            <stop stop-color="#9EEE69" offset="100%"></stop>
        </linearGradient>
        <linearGradient x1="50.0892451%" y1="93.5343121%" x2="50.0892451%" y2="-0.0366265898%" id="linearGradient-2">
            <stop stop-color="#E4E6E6" offset="0%"></stop>
            <stop stop-color="#F5F5FF" offset="100%"></stop>
        </linearGradient>
    </defs>
    <g id="Page-1" stroke="none" stroke-width="1" fill="none" fill-rule="evenodd">
        <g id="WeChat-Icon-Logo.wine" fill-rule="nonzero">
            <path d="M0,279.491699 C0,363.339391 45.3685786,439.94155 115.484817,490.663935 C121.671275,494.803457 124.764504,501.015479 124.764504,509.29635 C124.764504,511.367024 123.732819,514.473035 123.732819,516.541883 C118.578046,537.244972 109.296532,571.405616 108.266673,572.440953 C107.234988,575.545138 106.203303,577.615812 106.203303,580.721823 C106.203303,586.933846 111.359902,592.108705 117.546361,592.108705 C119.609731,592.108705 121.671275,591.073368 123.732819,590.038031 L196.942286,547.596516 C202.09706,544.492331 208.283518,542.421657 214.471802,542.421657 C217.563206,542.421657 221.68812,542.421657 224.781349,543.456994 C258.808696,553.808538 295.927446,558.983398 334.079707,558.983398 C518.647251,558.983398 668.157589,433.729528 668.157589,279.491699 C668.157589,125.25387 518.645425,0 334.079707,0 C149.510338,0 0,125.25387 0,279.491699" id="Path" fill="url(#linearGradient-1)"></path>
            <path d="M645.349132,723.466864 C677.236417,723.466864 708.095669,719.296299 735.86717,710.951519 C737.925062,709.910704 741.010987,709.910704 744.096913,709.910704 C749.24073,709.910704 754.382721,711.995986 758.498506,714.081268 L819.187151,749.542019 C821.243217,750.582834 822.273076,751.627301 824.329142,751.627301 C829.47296,751.627301 833.586918,747.454911 833.586918,742.241706 C833.586918,740.154598 832.558885,738.069316 832.558885,734.939567 C832.558885,733.896926 824.329142,705.738314 820.215184,688.007939 C819.187151,685.922657 819.187151,683.835549 819.187151,681.750267 C819.187151,675.492595 822.273076,670.277564 827.415067,666.105174 C886.047647,623.345937 923.078749,559.726576 923.078749,488.806902 C923.078749,359.482898 798.613707,254.148766 645.349132,254.148766 C492.084556,254.148766 367.621341,358.440257 367.621341,488.806902 C367.621341,618.130906 492.084556,723.466864 645.349132,723.466864 L645.349132,723.466864 Z" id="Path" fill="url(#linearGradient-2)"></path>
            <path d="M265.652511,189.258515 C265.652511,213.403597 246.682288,232.516248 222.719805,232.516248 C198.755496,232.516248 179.785273,213.403597 179.785273,189.258515 C179.785273,165.113433 198.757322,146.000782 222.719805,146.000782 C246.682288,146.000782 265.652511,165.113433 265.652511,189.258515 M488.372316,189.258515 C488.372316,213.403597 469.400267,232.516248 445.437784,232.516248 C421.475301,232.516248 402.505077,213.403597 402.505077,189.258515 C402.505077,165.113433 421.477126,146.000782 445.437784,146.000782 C469.402093,146.000782 488.372316,165.113433 488.372316,189.258515" id="Shape" fill="#187E28"></path>
            <path d="M703.043151,416.368003 C703.043151,437.397944 719.738189,454.220802 740.609269,454.220802 C761.480349,454.220802 778.175387,437.397944 778.175387,416.368003 C778.175387,395.339888 761.478523,378.51703 740.609269,378.51703 C719.738189,378.51703 703.041325,395.339888 703.041325,416.369829 M517.889465,416.369829 C517.889465,437.397944 534.586329,454.220802 555.455583,454.220802 C576.326663,454.220802 593.023527,437.397944 593.023527,416.368003 C593.023527,395.339888 576.326663,378.51703 555.455583,378.51703 C534.584503,378.51703 517.889465,395.339888 517.889465,416.369829" id="Shape" fill="#858C8C"></path>
        </g>
    </g>
</svg>
